<svg width="1035" height="713" viewBox="0 0 1035 713" fill="none" xmlns="http://www.w3.org/2000/svg">
<g filter="url(#filter0_ddd_274_1096)">
<path d="M566.576 286.737L631.976 286.755L697.329 286.764L730.123 249.983L762.565 213.597L630.998 213.579L566.576 286.737ZM501.104 286.697L598.536 176.957L860.363 176.931L731.172 322.445L338.044 322.972L272.681 396.407L338.271 396.403L403.743 396.385L436.172 359.868L501.625 359.916L436.791 432.89L175.016 432.811L304.743 286.638L501.104 286.697Z" fill="url(#paint0_linear_274_1096)"/>
<path d="M566.576 286.737L631.976 286.755L697.329 286.764L730.123 249.983L762.565 213.597L630.998 213.579L566.576 286.737ZM501.104 286.697L598.536 176.957L860.363 176.931L731.172 322.445L338.044 322.972L272.681 396.407L338.271 396.403L403.743 396.385L436.172 359.868L501.625 359.916L436.791 432.89L175.016 432.811L304.743 286.638L501.104 286.697Z" fill="#FF00E5" style="mix-blend-mode:saturation"/>
</g>
<path d="M566.576 285.737L631.976 285.755L697.329 285.764L730.123 248.983L762.565 212.597L630.998 212.579L566.576 285.737ZM501.104 285.697L598.536 175.957L860.363 175.931L731.172 321.445L338.044 321.972L272.681 395.407L338.271 395.403L403.743 395.385L436.172 358.868L501.625 358.916L436.791 431.89L175.016 431.811L304.743 285.638L501.104 285.697Z" fill="url(#paint1_linear_274_1096)"/>
<path d="M566.576 285.737L631.976 285.755L697.329 285.764L730.123 248.983L762.565 212.597L630.998 212.579L566.576 285.737ZM501.104 285.697L598.536 175.957L860.363 175.931L731.172 321.445L338.044 321.972L272.681 395.407L338.271 395.403L403.743 395.385L436.172 358.868L501.625 358.916L436.791 431.89L175.016 431.811L304.743 285.638L501.104 285.697Z" fill="#FF00E5" style="mix-blend-mode:saturation"/>
<path d="M566.576 283.737L631.976 283.755L697.329 283.764L730.123 246.983L762.565 210.597L630.998 210.579L566.576 283.737ZM501.104 283.697L598.536 173.957L860.363 173.931L731.172 319.445L338.044 319.972L272.681 393.407L338.271 393.403L403.743 393.385L436.172 356.868L501.625 356.916L436.791 429.89L175.016 429.811L304.743 283.638L501.104 283.697Z" fill="url(#paint2_linear_274_1096)"/>
<path d="M566.576 283.737L631.976 283.755L697.329 283.764L730.123 246.983L762.565 210.597L630.998 210.579L566.576 283.737ZM501.104 283.697L598.536 173.957L860.363 173.931L731.172 319.445L338.044 319.972L272.681 393.407L338.271 393.403L403.743 393.385L436.172 356.868L501.625 356.916L436.791 429.89L175.016 429.811L304.743 283.638L501.104 283.697Z" fill="#FF00E5" style="mix-blend-mode:saturation"/>
<path d="M566.576 281.737L631.976 281.755L697.329 281.764L730.123 244.983L762.565 208.597L630.998 208.579L566.576 281.737ZM501.104 281.697L598.536 171.957L860.363 171.931L731.172 317.445L338.044 317.972L272.681 391.407L338.271 391.403L403.743 391.385L436.172 354.868L501.625 354.916L436.791 427.89L175.016 427.811L304.743 281.638L501.104 281.697Z" fill="url(#paint3_linear_274_1096)"/>
<path d="M566.576 281.737L631.976 281.755L697.329 281.764L730.123 244.983L762.565 208.597L630.998 208.579L566.576 281.737ZM501.104 281.697L598.536 171.957L860.363 171.931L731.172 317.445L338.044 317.972L272.681 391.407L338.271 391.403L403.743 391.385L436.172 354.868L501.625 354.916L436.791 427.89L175.016 427.811L304.743 281.638L501.104 281.697Z" fill="#FF00E5" style="mix-blend-mode:saturation"/>
<path d="M566.576 279.741L631.976 279.759L697.329 279.768L730.123 242.987L762.565 206.601L630.998 206.583L566.576 279.741ZM501.104 279.701L598.536 169.96L860.363 169.935L731.172 315.449L338.044 315.976L272.681 389.411L338.271 389.407L403.743 389.389L436.172 352.872L501.625 352.92L436.791 425.894L175.016 425.815L304.743 279.642L501.104 279.701Z" fill="url(#paint4_linear_274_1096)"/>
<path d="M566.576 279.741L631.976 279.759L697.329 279.768L730.123 242.987L762.565 206.601L630.998 206.583L566.576 279.741ZM501.104 279.701L598.536 169.96L860.363 169.935L731.172 315.449L338.044 315.976L272.681 389.411L338.271 389.407L403.743 389.389L436.172 352.872L501.625 352.92L436.791 425.894L175.016 425.815L304.743 279.642L501.104 279.701Z" fill="#FF00E5" style="mix-blend-mode:saturation"/>
<path d="M566.576 277.741L631.976 277.759L697.329 277.768L730.123 240.987L762.565 204.601L630.998 204.583L566.576 277.741ZM501.104 277.701L598.536 167.96L860.363 167.935L731.172 313.449L338.044 313.976L272.681 387.411L338.271 387.407L403.743 387.389L436.172 350.872L501.625 350.92L436.791 423.894L175.016 423.815L304.743 277.642L501.104 277.701Z" fill="url(#paint5_linear_274_1096)"/>
<path d="M566.576 277.741L631.976 277.759L697.329 277.768L730.123 240.987L762.565 204.601L630.998 204.583L566.576 277.741ZM501.104 277.701L598.536 167.96L860.363 167.935L731.172 313.449L338.044 313.976L272.681 387.411L338.271 387.407L403.743 387.389L436.172 350.872L501.625 350.92L436.791 423.894L175.016 423.815L304.743 277.642L501.104 277.701Z" fill="#FF00E5" style="mix-blend-mode:saturation"/>
<path d="M566.576 275.741L631.976 275.759L697.329 275.768L730.123 238.987L762.565 202.601L630.998 202.583L566.576 275.741ZM501.104 275.701L598.536 165.96L860.363 165.935L731.172 311.449L338.044 311.976L272.681 385.411L338.271 385.407L403.743 385.389L436.172 348.872L501.625 348.92L436.791 421.894L175.016 421.815L304.743 275.642L501.104 275.701Z" fill="url(#paint6_linear_274_1096)"/>
<path d="M566.576 275.741L631.976 275.759L697.329 275.768L730.123 238.987L762.565 202.601L630.998 202.583L566.576 275.741ZM501.104 275.701L598.536 165.96L860.363 165.935L731.172 311.449L338.044 311.976L272.681 385.411L338.271 385.407L403.743 385.389L436.172 348.872L501.625 348.92L436.791 421.894L175.016 421.815L304.743 275.642L501.104 275.701Z" fill="#FF00E5" style="mix-blend-mode:saturation"/>
<path d="M566.576 273.745L631.976 273.763L697.329 273.772L730.123 236.991L762.565 200.605L630.998 200.587L566.576 273.745ZM501.104 273.705L598.536 163.964L860.363 163.939L731.172 309.453L338.044 309.98L272.681 383.415L338.271 383.411L403.743 383.393L436.172 346.876L501.625 346.924L436.791 419.897L175.016 419.819L304.743 273.646L501.104 273.705Z" fill="url(#paint7_linear_274_1096)"/>
<path d="M566.576 273.745L631.976 273.763L697.329 273.772L730.123 236.991L762.565 200.605L630.998 200.587L566.576 273.745ZM501.104 273.705L598.536 163.964L860.363 163.939L731.172 309.453L338.044 309.98L272.681 383.415L338.271 383.411L403.743 383.393L436.172 346.876L501.625 346.924L436.791 419.897L175.016 419.819L304.743 273.646L501.104 273.705Z" fill="#FF00E5" style="mix-blend-mode:saturation"/>
<path d="M566.576 271.745L631.976 271.763L697.329 271.772L730.123 234.991L762.565 198.605L630.998 198.587L566.576 271.745ZM501.104 271.705L598.536 161.964L860.363 161.939L731.172 307.453L338.044 307.98L272.681 381.415L338.271 381.411L403.743 381.393L436.172 344.876L501.625 344.924L436.791 417.897L175.016 417.819L304.743 271.646L501.104 271.705Z" fill="url(#paint8_linear_274_1096)"/>
<path d="M566.576 271.745L631.976 271.763L697.329 271.772L730.123 234.991L762.565 198.605L630.998 198.587L566.576 271.745ZM501.104 271.705L598.536 161.964L860.363 161.939L731.172 307.453L338.044 307.98L272.681 381.415L338.271 381.411L403.743 381.393L436.172 344.876L501.625 344.924L436.791 417.897L175.016 417.819L304.743 271.646L501.104 271.705Z" fill="#FF00E5" style="mix-blend-mode:saturation"/>
<path d="M566.576 269.745L631.976 269.763L697.329 269.772L730.123 232.991L762.565 196.605L630.998 196.587L566.576 269.745ZM501.104 269.705L598.536 159.964L860.363 159.939L731.172 305.453L338.044 305.98L272.681 379.415L338.271 379.411L403.743 379.393L436.172 342.876L501.625 342.924L436.791 415.897L175.016 415.819L304.743 269.646L501.104 269.705Z" fill="url(#paint9_linear_274_1096)"/>
<path d="M566.576 269.745L631.976 269.763L697.329 269.772L730.123 232.991L762.565 196.605L630.998 196.587L566.576 269.745ZM501.104 269.705L598.536 159.964L860.363 159.939L731.172 305.453L338.044 305.98L272.681 379.415L338.271 379.411L403.743 379.393L436.172 342.876L501.625 342.924L436.791 415.897L175.016 415.819L304.743 269.646L501.104 269.705Z" fill="#FF00E5" style="mix-blend-mode:saturation"/>
<path d="M566.576 267.745L631.976 267.763L697.329 267.772L730.123 230.991L762.565 194.605L630.998 194.587L566.576 267.745ZM501.104 267.705L598.536 157.964L860.363 157.939L731.172 303.453L338.044 303.98L272.681 377.415L338.271 377.411L403.743 377.393L436.172 340.876L501.625 340.924L436.791 413.897L175.016 413.819L304.743 267.646L501.104 267.705Z" fill="url(#paint10_linear_274_1096)"/>
<path d="M566.576 267.745L631.976 267.763L697.329 267.772L730.123 230.991L762.565 194.605L630.998 194.587L566.576 267.745ZM501.104 267.705L598.536 157.964L860.363 157.939L731.172 303.453L338.044 303.98L272.681 377.415L338.271 377.411L403.743 377.393L436.172 340.876L501.625 340.924L436.791 413.897L175.016 413.819L304.743 267.646L501.104 267.705Z" fill="#FF00E5" style="mix-blend-mode:saturation"/>
<path d="M566.576 265.749L631.976 265.766L697.329 265.776L730.123 228.995L762.565 192.609L630.998 192.591L566.576 265.749ZM501.104 265.709L598.536 155.968L860.363 155.943L731.172 301.456L338.044 301.984L272.681 375.419L338.271 375.415L403.743 375.397L436.172 338.88L501.625 338.928L436.791 411.901L175.016 411.823L304.743 265.65L501.104 265.709Z" fill="url(#paint11_linear_274_1096)"/>
<path d="M566.576 265.749L631.976 265.766L697.329 265.776L730.123 228.995L762.565 192.609L630.998 192.591L566.576 265.749ZM501.104 265.709L598.536 155.968L860.363 155.943L731.172 301.456L338.044 301.984L272.681 375.419L338.271 375.415L403.743 375.397L436.172 338.88L501.625 338.928L436.791 411.901L175.016 411.823L304.743 265.65L501.104 265.709Z" fill="#FF00E5" style="mix-blend-mode:saturation"/>
<path d="M566.576 263.749L631.976 263.766L697.329 263.776L730.123 226.995L762.565 190.609L630.998 190.591L566.576 263.749ZM501.104 263.709L598.536 153.968L860.363 153.943L731.172 299.456L338.044 299.984L272.681 373.419L338.271 373.415L403.743 373.397L436.172 336.88L501.625 336.928L436.791 409.901L175.016 409.823L304.743 263.65L501.104 263.709Z" fill="url(#paint12_linear_274_1096)"/>
<path d="M566.576 263.749L631.976 263.766L697.329 263.776L730.123 226.995L762.565 190.609L630.998 190.591L566.576 263.749ZM501.104 263.709L598.536 153.968L860.363 153.943L731.172 299.456L338.044 299.984L272.681 373.419L338.271 373.415L403.743 373.397L436.172 336.88L501.625 336.928L436.791 409.901L175.016 409.823L304.743 263.65L501.104 263.709Z" fill="#FF00E5" style="mix-blend-mode:saturation"/>
<path d="M566.576 261.749L631.976 261.766L697.329 261.776L730.123 224.995L762.565 188.609L630.998 188.591L566.576 261.749ZM501.104 261.709L598.536 151.968L860.363 151.943L731.172 297.456L338.044 297.984L272.681 371.419L338.271 371.415L403.743 371.397L436.172 334.88L501.625 334.928L436.791 407.901L175.016 407.823L304.743 261.65L501.104 261.709Z" fill="url(#paint13_linear_274_1096)"/>
<path d="M566.576 261.749L631.976 261.766L697.329 261.776L730.123 224.995L762.565 188.609L630.998 188.591L566.576 261.749ZM501.104 261.709L598.536 151.968L860.363 151.943L731.172 297.456L338.044 297.984L272.681 371.419L338.271 371.415L403.743 371.397L436.172 334.88L501.625 334.928L436.791 407.901L175.016 407.823L304.743 261.65L501.104 261.709Z" fill="#FF00E5" style="mix-blend-mode:saturation"/>
<path d="M566.576 259.753L631.976 259.77L697.329 259.779L730.123 222.998L762.565 186.613L630.998 186.595L566.576 259.753ZM501.104 259.712L598.536 149.972L860.363 149.947L731.172 295.46L338.044 295.988L272.681 369.422L338.271 369.419L403.743 369.401L436.172 332.884L501.625 332.932L436.791 405.905L175.016 405.827L304.743 259.654L501.104 259.712Z" fill="url(#paint14_linear_274_1096)"/>
<path d="M566.576 259.753L631.976 259.77L697.329 259.779L730.123 222.998L762.565 186.613L630.998 186.595L566.576 259.753ZM501.104 259.712L598.536 149.972L860.363 149.947L731.172 295.46L338.044 295.988L272.681 369.422L338.271 369.419L403.743 369.401L436.172 332.884L501.625 332.932L436.791 405.905L175.016 405.827L304.743 259.654L501.104 259.712Z" fill="#FF00E5" style="mix-blend-mode:saturation"/>
<path d="M566.576 257.753L631.976 257.77L697.329 257.779L730.123 220.998L762.565 184.613L630.998 184.595L566.576 257.753ZM501.104 257.712L598.536 147.972L860.363 147.947L731.172 293.46L338.044 293.988L272.681 367.422L338.271 367.419L403.743 367.401L436.172 330.884L501.625 330.932L436.791 403.905L175.016 403.827L304.743 257.654L501.104 257.712Z" fill="url(#paint15_linear_274_1096)"/>
<path d="M566.576 257.753L631.976 257.77L697.329 257.779L730.123 220.998L762.565 184.613L630.998 184.595L566.576 257.753ZM501.104 257.712L598.536 147.972L860.363 147.947L731.172 293.46L338.044 293.988L272.681 367.422L338.271 367.419L403.743 367.401L436.172 330.884L501.625 330.932L436.791 403.905L175.016 403.827L304.743 257.654L501.104 257.712Z" fill="#FF00E5" style="mix-blend-mode:saturation"/>
<path d="M566.576 255.753L631.976 255.77L697.329 255.779L730.123 218.998L762.565 182.613L630.998 182.595L566.576 255.753ZM501.104 255.712L598.536 145.972L860.363 145.947L731.172 291.46L338.044 291.988L272.681 365.422L338.271 365.419L403.743 365.401L436.172 328.884L501.625 328.932L436.791 401.905L175.016 401.827L304.743 255.654L501.104 255.712Z" fill="url(#paint16_linear_274_1096)"/>
<path d="M566.576 255.753L631.976 255.77L697.329 255.779L730.123 218.998L762.565 182.613L630.998 182.595L566.576 255.753ZM501.104 255.712L598.536 145.972L860.363 145.947L731.172 291.46L338.044 291.988L272.681 365.422L338.271 365.419L403.743 365.401L436.172 328.884L501.625 328.932L436.791 401.905L175.016 401.827L304.743 255.654L501.104 255.712Z" fill="#FF00E5" style="mix-blend-mode:saturation"/>
<path d="M566.576 253.757L631.976 253.774L697.329 253.783L730.123 217.002L762.565 180.617L630.998 180.599L566.576 253.757ZM501.104 253.716L598.536 143.976L860.363 143.95L731.172 289.464L338.044 289.992L272.681 363.426L338.271 363.423L403.743 363.404L436.172 326.888L501.625 326.936L436.791 399.909L175.016 399.831L304.743 253.658L501.104 253.716Z" fill="url(#paint17_linear_274_1096)"/>
<path d="M566.576 253.757L631.976 253.774L697.329 253.783L730.123 217.002L762.565 180.617L630.998 180.599L566.576 253.757ZM501.104 253.716L598.536 143.976L860.363 143.95L731.172 289.464L338.044 289.992L272.681 363.426L338.271 363.423L403.743 363.404L436.172 326.888L501.625 326.936L436.791 399.909L175.016 399.831L304.743 253.658L501.104 253.716Z" fill="#FF00E5" style="mix-blend-mode:saturation"/>
<path d="M566.576 251.757L631.976 251.774L697.329 251.783L730.123 215.002L762.565 178.617L630.998 178.599L566.576 251.757ZM501.104 251.716L598.536 141.976L860.363 141.95L731.172 287.464L338.044 287.992L272.681 361.426L338.271 361.423L403.743 361.404L436.172 324.888L501.625 324.936L436.791 397.909L175.016 397.831L304.743 251.658L501.104 251.716Z" fill="url(#paint18_linear_274_1096)"/>
<path d="M566.576 251.757L631.976 251.774L697.329 251.783L730.123 215.002L762.565 178.617L630.998 178.599L566.576 251.757ZM501.104 251.716L598.536 141.976L860.363 141.95L731.172 287.464L338.044 287.992L272.681 361.426L338.271 361.423L403.743 361.404L436.172 324.888L501.625 324.936L436.791 397.909L175.016 397.831L304.743 251.658L501.104 251.716Z" fill="#FF00E5" style="mix-blend-mode:saturation"/>
<path d="M566.576 249.757L631.976 249.774L697.329 249.783L730.123 213.002L762.565 176.617L630.998 176.599L566.576 249.757ZM501.104 249.716L598.536 139.976L860.363 139.95L731.172 285.464L338.044 285.992L272.681 359.426L338.271 359.423L403.743 359.404L436.172 322.888L501.625 322.936L436.791 395.909L175.016 395.831L304.743 249.658L501.104 249.716Z" fill="url(#paint19_linear_274_1096)"/>
<path d="M566.576 249.757L631.976 249.774L697.329 249.783L730.123 213.002L762.565 176.617L630.998 176.599L566.576 249.757ZM501.104 249.716L598.536 139.976L860.363 139.95L731.172 285.464L338.044 285.992L272.681 359.426L338.271 359.423L403.743 359.404L436.172 322.888L501.625 322.936L436.791 395.909L175.016 395.831L304.743 249.658L501.104 249.716Z" fill="#FF00E5" style="mix-blend-mode:saturation"/>
<path d="M566.576 247.757L631.976 247.774L697.329 247.783L730.123 211.002L762.565 174.617L630.998 174.599L566.576 247.757ZM501.104 247.716L598.536 137.976L860.363 137.95L731.172 283.464L338.044 283.992L272.681 357.426L338.271 357.423L403.743 357.404L436.172 320.888L501.625 320.936L436.791 393.909L175.016 393.831L304.743 247.658L501.104 247.716Z" fill="url(#paint20_linear_274_1096)"/>
<path d="M566.576 247.757L631.976 247.774L697.329 247.783L730.123 211.002L762.565 174.617L630.998 174.599L566.576 247.757ZM501.104 247.716L598.536 137.976L860.363 137.95L731.172 283.464L338.044 283.992L272.681 357.426L338.271 357.423L403.743 357.404L436.172 320.888L501.625 320.936L436.791 393.909L175.016 393.831L304.743 247.658L501.104 247.716Z" fill="#FF00E5" style="mix-blend-mode:saturation"/>
<path d="M566.576 245.761L631.976 245.778L697.329 245.787L730.123 209.006L762.565 172.621L630.998 172.603L566.576 245.761ZM501.104 245.72L598.536 135.98L860.363 135.954L731.172 281.468L338.044 281.995L272.681 355.43L338.271 355.427L403.743 355.408L436.172 318.892L501.625 318.94L436.791 391.913L175.016 391.835L304.743 245.662L501.104 245.72Z" fill="url(#paint21_linear_274_1096)"/>
<path d="M566.576 245.761L631.976 245.778L697.329 245.787L730.123 209.006L762.565 172.621L630.998 172.603L566.576 245.761ZM501.104 245.72L598.536 135.98L860.363 135.954L731.172 281.468L338.044 281.995L272.681 355.43L338.271 355.427L403.743 355.408L436.172 318.892L501.625 318.94L436.791 391.913L175.016 391.835L304.743 245.662L501.104 245.72Z" fill="#FF00E5" style="mix-blend-mode:saturation"/>
<path d="M566.576 243.761L631.976 243.778L697.329 243.787L730.123 207.006L762.565 170.621L630.998 170.603L566.576 243.761ZM501.104 243.72L598.536 133.98L860.363 133.954L731.172 279.468L338.044 279.995L272.681 353.43L338.271 353.427L403.743 353.408L436.172 316.892L501.625 316.94L436.791 389.913L175.016 389.835L304.743 243.662L501.104 243.72Z" fill="url(#paint22_linear_274_1096)"/>
<path d="M566.576 243.761L631.976 243.778L697.329 243.787L730.123 207.006L762.565 170.621L630.998 170.603L566.576 243.761ZM501.104 243.72L598.536 133.98L860.363 133.954L731.172 279.468L338.044 279.995L272.681 353.43L338.271 353.427L403.743 353.408L436.172 316.892L501.625 316.94L436.791 389.913L175.016 389.835L304.743 243.662L501.104 243.72Z" fill="#FF00E5" style="mix-blend-mode:saturation"/>
<path d="M566.576 241.761L631.976 241.778L697.329 241.787L730.123 205.006L762.565 168.621L630.998 168.603L566.576 241.761ZM501.104 241.72L598.536 131.98L860.363 131.954L731.172 277.468L338.044 277.995L272.681 351.43L338.271 351.427L403.743 351.408L436.172 314.892L501.625 314.94L436.791 387.913L175.016 387.835L304.743 241.662L501.104 241.72Z" fill="url(#paint23_linear_274_1096)"/>
<path d="M566.576 241.761L631.976 241.778L697.329 241.787L730.123 205.006L762.565 168.621L630.998 168.603L566.576 241.761ZM501.104 241.72L598.536 131.98L860.363 131.954L731.172 277.468L338.044 277.995L272.681 351.43L338.271 351.427L403.743 351.408L436.172 314.892L501.625 314.94L436.791 387.913L175.016 387.835L304.743 241.662L501.104 241.72Z" fill="#FF00E5" style="mix-blend-mode:saturation"/>
<path d="M566.576 239.765L631.976 239.782L697.329 239.791L730.123 203.01L762.565 166.624L630.998 166.607L566.576 239.765ZM501.104 239.724L598.536 129.984L860.363 129.958L731.172 275.472L338.044 275.999L272.681 349.434L338.271 349.431L403.743 349.412L436.172 312.896L501.625 312.944L436.791 385.917L175.016 385.839L304.743 239.666L501.104 239.724Z" fill="url(#paint24_linear_274_1096)"/>
<path d="M566.576 239.765L631.976 239.782L697.329 239.791L730.123 203.01L762.565 166.624L630.998 166.607L566.576 239.765ZM501.104 239.724L598.536 129.984L860.363 129.958L731.172 275.472L338.044 275.999L272.681 349.434L338.271 349.431L403.743 349.412L436.172 312.896L501.625 312.944L436.791 385.917L175.016 385.839L304.743 239.666L501.104 239.724Z" fill="#FF00E5" style="mix-blend-mode:saturation"/>
<path d="M566.576 237.765L631.976 237.782L697.329 237.791L730.123 201.01L762.565 164.624L630.998 164.607L566.576 237.765ZM501.104 237.724L598.536 127.984L860.363 127.958L731.172 273.472L338.044 273.999L272.681 347.434L338.271 347.431L403.743 347.412L436.172 310.896L501.625 310.944L436.791 383.917L175.016 383.839L304.743 237.666L501.104 237.724Z" fill="url(#paint25_linear_274_1096)"/>
<path d="M566.576 237.765L631.976 237.782L697.329 237.791L730.123 201.01L762.565 164.624L630.998 164.607L566.576 237.765ZM501.104 237.724L598.536 127.984L860.363 127.958L731.172 273.472L338.044 273.999L272.681 347.434L338.271 347.431L403.743 347.412L436.172 310.896L501.625 310.944L436.791 383.917L175.016 383.839L304.743 237.666L501.104 237.724Z" fill="#FF00E5" style="mix-blend-mode:saturation"/>
<path d="M566.576 235.765L631.976 235.782L697.329 235.791L730.123 199.01L762.565 162.624L630.998 162.607L566.576 235.765ZM501.104 235.724L598.536 125.984L860.363 125.958L731.172 271.472L338.044 271.999L272.681 345.434L338.271 345.431L403.743 345.412L436.172 308.896L501.625 308.944L436.791 381.917L175.016 381.839L304.743 235.666L501.104 235.724Z" fill="url(#paint26_linear_274_1096)"/>
<path d="M566.576 235.765L631.976 235.782L697.329 235.791L730.123 199.01L762.565 162.624L630.998 162.607L566.576 235.765ZM501.104 235.724L598.536 125.984L860.363 125.958L731.172 271.472L338.044 271.999L272.681 345.434L338.271 345.431L403.743 345.412L436.172 308.896L501.625 308.944L436.791 381.917L175.016 381.839L304.743 235.666L501.104 235.724Z" fill="#FF00E5" style="mix-blend-mode:saturation"/>
<path d="M566.576 233.769L631.976 233.786L697.329 233.795L730.123 197.014L762.565 160.628L630.998 160.611L566.576 233.769ZM501.104 233.728L598.536 123.988L860.363 123.962L731.172 269.476L338.044 270.003L272.681 343.438L338.271 343.435L403.743 343.416L436.172 306.899L501.625 306.947L436.791 379.921L175.016 379.843L304.743 233.67L501.104 233.728Z" fill="url(#paint27_linear_274_1096)"/>
<path d="M566.576 233.769L631.976 233.786L697.329 233.795L730.123 197.014L762.565 160.628L630.998 160.611L566.576 233.769ZM501.104 233.728L598.536 123.988L860.363 123.962L731.172 269.476L338.044 270.003L272.681 343.438L338.271 343.435L403.743 343.416L436.172 306.899L501.625 306.947L436.791 379.921L175.016 379.843L304.743 233.67L501.104 233.728Z" fill="#FF00E5" style="mix-blend-mode:saturation"/>
<path d="M566.576 231.769L631.976 231.786L697.329 231.795L730.123 195.014L762.565 158.628L630.998 158.611L566.576 231.769ZM501.104 231.728L598.536 121.988L860.363 121.962L731.172 267.476L338.044 268.003L272.681 341.438L338.271 341.435L403.743 341.416L436.172 304.899L501.625 304.947L436.791 377.921L175.016 377.843L304.743 231.67L501.104 231.728Z" fill="url(#paint28_linear_274_1096)"/>
<path d="M566.576 231.769L631.976 231.786L697.329 231.795L730.123 195.014L762.565 158.628L630.998 158.611L566.576 231.769ZM501.104 231.728L598.536 121.988L860.363 121.962L731.172 267.476L338.044 268.003L272.681 341.438L338.271 341.435L403.743 341.416L436.172 304.899L501.625 304.947L436.791 377.921L175.016 377.843L304.743 231.67L501.104 231.728Z" fill="#FF00E5" style="mix-blend-mode:saturation"/>
<path d="M566.576 229.769L631.976 229.786L697.329 229.795L730.123 193.014L762.565 156.628L630.998 156.611L566.576 229.769ZM501.104 229.728L598.536 119.988L860.363 119.962L731.172 265.476L338.044 266.003L272.681 339.438L338.271 339.435L403.743 339.416L436.172 302.899L501.625 302.947L436.791 375.921L175.016 375.843L304.743 229.67L501.104 229.728Z" fill="url(#paint29_linear_274_1096)"/>
<path d="M566.576 229.769L631.976 229.786L697.329 229.795L730.123 193.014L762.565 156.628L630.998 156.611L566.576 229.769ZM501.104 229.728L598.536 119.988L860.363 119.962L731.172 265.476L338.044 266.003L272.681 339.438L338.271 339.435L403.743 339.416L436.172 302.899L501.625 302.947L436.791 375.921L175.016 375.843L304.743 229.67L501.104 229.728Z" fill="#FF00E5" style="mix-blend-mode:saturation"/>
<path d="M566.576 227.769L631.976 227.786L697.329 227.795L730.123 191.014L762.565 154.628L630.998 154.611L566.576 227.769ZM501.104 227.728L598.536 117.988L860.363 117.962L731.172 263.476L338.044 264.003L272.681 337.438L338.271 337.435L403.743 337.416L436.172 300.899L501.625 300.947L436.791 373.921L175.016 373.843L304.743 227.67L501.104 227.728Z" fill="url(#paint30_linear_274_1096)"/>
<path d="M566.576 227.769L631.976 227.786L697.329 227.795L730.123 191.014L762.565 154.628L630.998 154.611L566.576 227.769ZM501.104 227.728L598.536 117.988L860.363 117.962L731.172 263.476L338.044 264.003L272.681 337.438L338.271 337.435L403.743 337.416L436.172 300.899L501.625 300.947L436.791 373.921L175.016 373.843L304.743 227.67L501.104 227.728Z" fill="#FF00E5" style="mix-blend-mode:saturation"/>
<path d="M566.576 225.773L631.976 225.79L697.329 225.799L730.123 189.018L762.565 152.632L630.998 152.615L566.576 225.773ZM501.104 225.732L598.536 115.992L860.363 115.966L731.172 261.48L338.044 262.007L272.681 335.442L338.271 335.439L403.743 335.42L436.172 298.903L501.625 298.951L436.791 371.925L175.016 371.846L304.743 225.674L501.104 225.732Z" fill="url(#paint31_linear_274_1096)"/>
<path d="M566.576 225.773L631.976 225.79L697.329 225.799L730.123 189.018L762.565 152.632L630.998 152.615L566.576 225.773ZM501.104 225.732L598.536 115.992L860.363 115.966L731.172 261.48L338.044 262.007L272.681 335.442L338.271 335.439L403.743 335.42L436.172 298.903L501.625 298.951L436.791 371.925L175.016 371.846L304.743 225.674L501.104 225.732Z" fill="#FF00E5" style="mix-blend-mode:saturation"/>
<path d="M566.576 223.773L631.976 223.79L697.329 223.799L730.123 187.018L762.565 150.632L630.998 150.615L566.576 223.773ZM501.104 223.732L598.536 113.992L860.363 113.966L731.172 259.48L338.044 260.007L272.681 333.442L338.271 333.439L403.743 333.42L436.172 296.903L501.625 296.951L436.791 369.925L175.016 369.846L304.743 223.674L501.104 223.732Z" fill="url(#paint32_linear_274_1096)"/>
<path d="M566.576 223.773L631.976 223.79L697.329 223.799L730.123 187.018L762.565 150.632L630.998 150.615L566.576 223.773ZM501.104 223.732L598.536 113.992L860.363 113.966L731.172 259.48L338.044 260.007L272.681 333.442L338.271 333.439L403.743 333.42L436.172 296.903L501.625 296.951L436.791 369.925L175.016 369.846L304.743 223.674L501.104 223.732Z" fill="#FF00E5" style="mix-blend-mode:saturation"/>
<path d="M566.576 221.773L631.976 221.79L697.329 221.799L730.123 185.018L762.565 148.632L630.998 148.615L566.576 221.773ZM501.104 221.732L598.536 111.992L860.363 111.966L731.172 257.48L338.044 258.007L272.681 331.442L338.271 331.439L403.743 331.42L436.172 294.903L501.625 294.951L436.791 367.925L175.016 367.846L304.743 221.674L501.104 221.732Z" fill="url(#paint33_linear_274_1096)"/>
<path d="M566.576 221.773L631.976 221.79L697.329 221.799L730.123 185.018L762.565 148.632L630.998 148.615L566.576 221.773ZM501.104 221.732L598.536 111.992L860.363 111.966L731.172 257.48L338.044 258.007L272.681 331.442L338.271 331.439L403.743 331.42L436.172 294.903L501.625 294.951L436.791 367.925L175.016 367.846L304.743 221.674L501.104 221.732Z" fill="#FF00E5" style="mix-blend-mode:saturation"/>
<path d="M566.576 219.777L631.976 219.794L697.329 219.803L730.123 183.022L762.565 146.636L630.998 146.618L566.576 219.777ZM501.104 219.736L598.536 109.996L860.363 109.97L731.172 255.484L338.044 256.011L272.681 329.446L338.271 329.443L403.743 329.424L436.172 292.907L501.625 292.955L436.791 365.929L175.016 365.85L304.743 219.677L501.104 219.736Z" fill="url(#paint34_linear_274_1096)"/>
<path d="M566.576 219.777L631.976 219.794L697.329 219.803L730.123 183.022L762.565 146.636L630.998 146.618L566.576 219.777ZM501.104 219.736L598.536 109.996L860.363 109.97L731.172 255.484L338.044 256.011L272.681 329.446L338.271 329.443L403.743 329.424L436.172 292.907L501.625 292.955L436.791 365.929L175.016 365.85L304.743 219.677L501.104 219.736Z" fill="#FF00E5" style="mix-blend-mode:saturation"/>
<path d="M566.576 217.777L631.976 217.794L697.329 217.803L730.123 181.022L762.565 144.636L630.998 144.618L566.576 217.777ZM501.104 217.736L598.536 107.996L860.363 107.97L731.172 253.484L338.044 254.011L272.681 327.446L338.271 327.443L403.743 327.424L436.172 290.907L501.625 290.955L436.791 363.929L175.016 363.85L304.743 217.677L501.104 217.736Z" fill="url(#paint35_linear_274_1096)"/>
<path d="M566.576 217.777L631.976 217.794L697.329 217.803L730.123 181.022L762.565 144.636L630.998 144.618L566.576 217.777ZM501.104 217.736L598.536 107.996L860.363 107.97L731.172 253.484L338.044 254.011L272.681 327.446L338.271 327.443L403.743 327.424L436.172 290.907L501.625 290.955L436.791 363.929L175.016 363.85L304.743 217.677L501.104 217.736Z" fill="#FF00E5" style="mix-blend-mode:saturation"/>
<path d="M566.576 215.777L631.976 215.794L697.329 215.803L730.123 179.022L762.565 142.636L630.998 142.618L566.576 215.777ZM501.104 215.736L598.536 105.996L860.363 105.97L731.172 251.484L338.044 252.011L272.681 325.446L338.271 325.443L403.743 325.424L436.172 288.907L501.625 288.955L436.791 361.929L175.016 361.85L304.743 215.677L501.104 215.736Z" fill="url(#paint36_linear_274_1096)"/>
<path d="M566.576 215.777L631.976 215.794L697.329 215.803L730.123 179.022L762.565 142.636L630.998 142.618L566.576 215.777ZM501.104 215.736L598.536 105.996L860.363 105.97L731.172 251.484L338.044 252.011L272.681 325.446L338.271 325.443L403.743 325.424L436.172 288.907L501.625 288.955L436.791 361.929L175.016 361.85L304.743 215.677L501.104 215.736Z" fill="#FF00E5" style="mix-blend-mode:saturation"/>
<path d="M566.576 213.78L631.976 213.798L697.329 213.807L730.123 177.026L762.565 140.64L630.998 140.622L566.576 213.78ZM501.104 213.74L598.536 104L860.363 103.974L731.172 249.488L338.044 250.015L272.681 323.45L338.271 323.446L403.743 323.428L436.172 286.911L501.625 286.959L436.791 359.933L175.016 359.854L304.743 213.681L501.104 213.74Z" fill="url(#paint37_linear_274_1096)"/>
<path d="M566.576 213.78L631.976 213.798L697.329 213.807L730.123 177.026L762.565 140.64L630.998 140.622L566.576 213.78ZM501.104 213.74L598.536 104L860.363 103.974L731.172 249.488L338.044 250.015L272.681 323.45L338.271 323.446L403.743 323.428L436.172 286.911L501.625 286.959L436.791 359.933L175.016 359.854L304.743 213.681L501.104 213.74Z" fill="#FF00E5" style="mix-blend-mode:saturation"/>
<path d="M566.576 211.78L631.976 211.798L697.329 211.807L730.123 175.026L762.565 138.64L630.998 138.622L566.576 211.78ZM501.104 211.74L598.536 102L860.363 101.974L731.172 247.488L338.044 248.015L272.681 321.45L338.271 321.446L403.743 321.428L436.172 284.911L501.625 284.959L436.791 357.933L175.016 357.854L304.743 211.681L501.104 211.74Z" fill="url(#paint38_linear_274_1096)"/>
<path d="M566.576 211.78L631.976 211.798L697.329 211.807L730.123 175.026L762.565 138.64L630.998 138.622L566.576 211.78ZM501.104 211.74L598.536 102L860.363 101.974L731.172 247.488L338.044 248.015L272.681 321.45L338.271 321.446L403.743 321.428L436.172 284.911L501.625 284.959L436.791 357.933L175.016 357.854L304.743 211.681L501.104 211.74Z" fill="#FF00E5" style="mix-blend-mode:saturation"/>
<path d="M566.576 209.78L631.976 209.798L697.329 209.807L730.123 173.026L762.565 136.64L630.998 136.622L566.576 209.78ZM501.104 209.74L598.536 99.9995L860.363 99.9739L731.172 245.488L338.044 246.015L272.681 319.45L338.271 319.446L403.743 319.428L436.172 282.911L501.625 282.959L436.791 355.933L175.016 355.854L304.743 209.681L501.104 209.74Z" fill="url(#paint39_linear_274_1096)"/>
<path d="M566.576 209.78L631.976 209.798L697.329 209.807L730.123 173.026L762.565 136.64L630.998 136.622L566.576 209.78ZM501.104 209.74L598.536 99.9995L860.363 99.9739L731.172 245.488L338.044 246.015L272.681 319.45L338.271 319.446L403.743 319.428L436.172 282.911L501.625 282.959L436.791 355.933L175.016 355.854L304.743 209.681L501.104 209.74Z" fill="#FF00E5" style="mix-blend-mode:saturation"/>
<path d="M566.576 207.78L631.976 207.798L697.329 207.807L730.123 171.026L762.565 134.64L630.998 134.622L566.576 207.78ZM501.104 207.74L598.536 97.9995L860.363 97.9739L731.172 243.488L338.044 244.015L272.681 317.45L338.271 317.446L403.743 317.428L436.172 280.911L501.625 280.959L436.791 353.933L175.016 353.854L304.743 207.681L501.104 207.74Z" fill="url(#paint40_linear_274_1096)"/>
<path d="M566.576 207.78L631.976 207.798L697.329 207.807L730.123 171.026L762.565 134.64L630.998 134.622L566.576 207.78ZM501.104 207.74L598.536 97.9995L860.363 97.9739L731.172 243.488L338.044 244.015L272.681 317.45L338.271 317.446L403.743 317.428L436.172 280.911L501.625 280.959L436.791 353.933L175.016 353.854L304.743 207.681L501.104 207.74Z" fill="#FF00E5" style="mix-blend-mode:saturation"/>
<path d="M566.576 205.784L631.976 205.802L697.329 205.811L730.123 169.03L762.565 132.644L630.998 132.626L566.576 205.784ZM501.104 205.744L598.536 96.0034L860.363 95.9778L731.172 241.492L338.044 242.019L272.681 315.454L338.271 315.45L403.743 315.432L436.172 278.915L501.625 278.963L436.791 351.936L175.016 351.858L304.743 205.685L501.104 205.744Z" fill="url(#paint41_linear_274_1096)"/>
<path d="M566.576 205.784L631.976 205.802L697.329 205.811L730.123 169.03L762.565 132.644L630.998 132.626L566.576 205.784ZM501.104 205.744L598.536 96.0034L860.363 95.9778L731.172 241.492L338.044 242.019L272.681 315.454L338.271 315.45L403.743 315.432L436.172 278.915L501.625 278.963L436.791 351.936L175.016 351.858L304.743 205.685L501.104 205.744Z" fill="#FF00E5" style="mix-blend-mode:saturation"/>
<path d="M566.576 203.784L631.976 203.802L697.329 203.811L730.123 167.03L762.565 130.644L630.998 130.626L566.576 203.784ZM501.104 203.744L598.536 94.0034L860.363 93.9778L731.172 239.492L338.044 240.019L272.681 313.454L338.271 313.45L403.743 313.432L436.172 276.915L501.625 276.963L436.791 349.936L175.016 349.858L304.743 203.685L501.104 203.744Z" fill="url(#paint42_linear_274_1096)"/>
<path d="M566.576 203.784L631.976 203.802L697.329 203.811L730.123 167.03L762.565 130.644L630.998 130.626L566.576 203.784ZM501.104 203.744L598.536 94.0034L860.363 93.9778L731.172 239.492L338.044 240.019L272.681 313.454L338.271 313.45L403.743 313.432L436.172 276.915L501.625 276.963L436.791 349.936L175.016 349.858L304.743 203.685L501.104 203.744Z" fill="#FF00E5" style="mix-blend-mode:saturation"/>
<path d="M566.576 201.784L631.976 201.802L697.329 201.811L730.123 165.03L762.565 128.644L630.998 128.626L566.576 201.784ZM501.104 201.744L598.536 92.0034L860.363 91.9778L731.172 237.492L338.044 238.019L272.681 311.454L338.271 311.45L403.743 311.432L436.172 274.915L501.625 274.963L436.791 347.936L175.016 347.858L304.743 201.685L501.104 201.744Z" fill="url(#paint43_linear_274_1096)"/>
<path d="M566.576 201.784L631.976 201.802L697.329 201.811L730.123 165.03L762.565 128.644L630.998 128.626L566.576 201.784ZM501.104 201.744L598.536 92.0034L860.363 91.9778L731.172 237.492L338.044 238.019L272.681 311.454L338.271 311.45L403.743 311.432L436.172 274.915L501.625 274.963L436.791 347.936L175.016 347.858L304.743 201.685L501.104 201.744Z" fill="#FF00E5" style="mix-blend-mode:saturation"/>
<path d="M566.576 199.788L631.976 199.806L697.329 199.815L730.123 163.034L762.565 126.648L630.998 126.63L566.576 199.788ZM501.104 199.748L598.536 90.0073L860.363 89.9817L731.172 235.495L338.044 236.023L272.681 309.458L338.271 309.454L403.743 309.436L436.172 272.919L501.625 272.967L436.791 345.94L175.016 345.862L304.743 199.689L501.104 199.748Z" fill="url(#paint44_linear_274_1096)"/>
<path d="M566.576 199.788L631.976 199.806L697.329 199.815L730.123 163.034L762.565 126.648L630.998 126.63L566.576 199.788ZM501.104 199.748L598.536 90.0073L860.363 89.9817L731.172 235.495L338.044 236.023L272.681 309.458L338.271 309.454L403.743 309.436L436.172 272.919L501.625 272.967L436.791 345.94L175.016 345.862L304.743 199.689L501.104 199.748Z" fill="#FF00E5" style="mix-blend-mode:saturation"/>
<path d="M566.576 197.788L631.976 197.806L697.329 197.815L730.123 161.034L762.565 124.648L630.998 124.63L566.576 197.788ZM501.104 197.748L598.536 88.0073L860.363 87.9817L731.172 233.495L338.044 234.023L272.681 307.458L338.271 307.454L403.743 307.436L436.172 270.919L501.625 270.967L436.791 343.94L175.016 343.862L304.743 197.689L501.104 197.748Z" fill="url(#paint45_linear_274_1096)"/>
<path d="M566.576 197.788L631.976 197.806L697.329 197.815L730.123 161.034L762.565 124.648L630.998 124.63L566.576 197.788ZM501.104 197.748L598.536 88.0073L860.363 87.9817L731.172 233.495L338.044 234.023L272.681 307.458L338.271 307.454L403.743 307.436L436.172 270.919L501.625 270.967L436.791 343.94L175.016 343.862L304.743 197.689L501.104 197.748Z" fill="#FF00E5" style="mix-blend-mode:saturation"/>
<path d="M566.576 195.788L631.976 195.806L697.329 195.815L730.123 159.034L762.565 122.648L630.998 122.63L566.576 195.788ZM501.104 195.748L598.536 86.0073L860.363 85.9817L731.172 231.495L338.044 232.023L272.681 305.458L338.271 305.454L403.743 305.436L436.172 268.919L501.625 268.967L436.791 341.94L175.016 341.862L304.743 195.689L501.104 195.748Z" fill="url(#paint46_linear_274_1096)"/>
<path d="M566.576 195.788L631.976 195.806L697.329 195.815L730.123 159.034L762.565 122.648L630.998 122.63L566.576 195.788ZM501.104 195.748L598.536 86.0073L860.363 85.9817L731.172 231.495L338.044 232.023L272.681 305.458L338.271 305.454L403.743 305.436L436.172 268.919L501.625 268.967L436.791 341.94L175.016 341.862L304.743 195.689L501.104 195.748Z" fill="#FF00E5" style="mix-blend-mode:saturation"/>
<path d="M566.576 193.788L631.976 193.806L697.329 193.815L730.123 157.034L762.565 120.648L630.998 120.63L566.576 193.788ZM501.104 193.748L598.536 84.0073L860.363 83.9817L731.172 229.495L338.044 230.023L272.681 303.458L338.271 303.454L403.743 303.436L436.172 266.919L501.625 266.967L436.791 339.94L175.016 339.862L304.743 193.689L501.104 193.748Z" fill="url(#paint47_linear_274_1096)"/>
<path d="M566.576 193.788L631.976 193.806L697.329 193.815L730.123 157.034L762.565 120.648L630.998 120.63L566.576 193.788ZM501.104 193.748L598.536 84.0073L860.363 83.9817L731.172 229.495L338.044 230.023L272.681 303.458L338.271 303.454L403.743 303.436L436.172 266.919L501.625 266.967L436.791 339.94L175.016 339.862L304.743 193.689L501.104 193.748Z" fill="#FF00E5" style="mix-blend-mode:saturation"/>
<path d="M566.576 191.792L631.976 191.809L697.329 191.818L730.123 155.038L762.565 118.652L630.998 118.634L566.576 191.792ZM501.104 191.752L598.536 82.0112L860.363 81.9856L731.172 227.499L338.044 228.027L272.681 301.462L338.271 301.458L403.743 301.44L436.172 264.923L501.625 264.971L436.791 337.944L175.016 337.866L304.743 191.693L501.104 191.752Z" fill="url(#paint48_linear_274_1096)"/>
<path d="M566.576 191.792L631.976 191.809L697.329 191.818L730.123 155.038L762.565 118.652L630.998 118.634L566.576 191.792ZM501.104 191.752L598.536 82.0112L860.363 81.9856L731.172 227.499L338.044 228.027L272.681 301.462L338.271 301.458L403.743 301.44L436.172 264.923L501.625 264.971L436.791 337.944L175.016 337.866L304.743 191.693L501.104 191.752Z" fill="#FF00E5" style="mix-blend-mode:saturation"/>
<path d="M566.576 189.792L631.976 189.809L697.329 189.818L730.123 153.038L762.565 116.652L630.998 116.634L566.576 189.792ZM501.104 189.752L598.536 80.0112L860.363 79.9856L731.172 225.499L338.044 226.027L272.681 299.462L338.271 299.458L403.743 299.44L436.172 262.923L501.625 262.971L436.791 335.944L175.016 335.866L304.743 189.693L501.104 189.752Z" fill="url(#paint49_linear_274_1096)"/>
<path d="M566.576 189.792L631.976 189.809L697.329 189.818L730.123 153.038L762.565 116.652L630.998 116.634L566.576 189.792ZM501.104 189.752L598.536 80.0112L860.363 79.9856L731.172 225.499L338.044 226.027L272.681 299.462L338.271 299.458L403.743 299.44L436.172 262.923L501.625 262.971L436.791 335.944L175.016 335.866L304.743 189.693L501.104 189.752Z" fill="#FF00E5" style="mix-blend-mode:saturation"/>
<path d="M566.576 187.792L631.976 187.809L697.329 187.818L730.123 151.038L762.565 114.652L630.998 114.634L566.576 187.792ZM501.104 187.752L598.536 78.0112L860.363 77.9856L731.172 223.499L338.044 224.027L272.681 297.462L338.271 297.458L403.743 297.44L436.172 260.923L501.625 260.971L436.791 333.944L175.016 333.866L304.743 187.693L501.104 187.752Z" fill="url(#paint50_linear_274_1096)"/>
<path d="M566.576 187.792L631.976 187.809L697.329 187.818L730.123 151.038L762.565 114.652L630.998 114.634L566.576 187.792ZM501.104 187.752L598.536 78.0112L860.363 77.9856L731.172 223.499L338.044 224.027L272.681 297.462L338.271 297.458L403.743 297.44L436.172 260.923L501.625 260.971L436.791 333.944L175.016 333.866L304.743 187.693L501.104 187.752Z" fill="#FF00E5" style="mix-blend-mode:saturation"/>
<path d="M566.576 185.796L631.976 185.813L697.329 185.822L730.123 149.041L762.565 112.656L630.998 112.638L566.576 185.796ZM501.104 185.755L598.536 76.0151L860.363 75.9895L731.172 221.503L338.044 222.031L272.681 295.465L338.271 295.462L403.743 295.444L436.172 258.927L501.625 258.975L436.791 331.948L175.016 331.87L304.743 185.697L501.104 185.755Z" fill="url(#paint51_linear_274_1096)"/>
<path d="M566.576 185.796L631.976 185.813L697.329 185.822L730.123 149.041L762.565 112.656L630.998 112.638L566.576 185.796ZM501.104 185.755L598.536 76.0151L860.363 75.9895L731.172 221.503L338.044 222.031L272.681 295.465L338.271 295.462L403.743 295.444L436.172 258.927L501.625 258.975L436.791 331.948L175.016 331.87L304.743 185.697L501.104 185.755Z" fill="#FF00E5" style="mix-blend-mode:saturation"/>
<path d="M566.576 183.796L631.976 183.813L697.329 183.822L730.123 147.041L762.565 110.656L630.998 110.638L566.576 183.796ZM501.104 183.755L598.536 74.0151L860.363 73.9895L731.172 219.503L338.044 220.031L272.681 293.465L338.271 293.462L403.743 293.444L436.172 256.927L501.625 256.975L436.791 329.948L175.016 329.87L304.743 183.697L501.104 183.755Z" fill="url(#paint52_linear_274_1096)" style="mix-blend-mode:soft-light"/>
<path d="M566.576 183.796L631.976 183.813L697.329 183.822L730.123 147.041L762.565 110.656L630.998 110.638L566.576 183.796ZM501.104 183.755L598.536 74.0151L860.363 73.9895L731.172 219.503L338.044 220.031L272.681 293.465L338.271 293.462L403.743 293.444L436.172 256.927L501.625 256.975L436.791 329.948L175.016 329.87L304.743 183.697L501.104 183.755Z" fill="#FF00E5" style="mix-blend-mode:saturation"/>
<defs>
<filter id="filter0_ddd_274_1096" x="0.503098" y="107.125" width="1034.37" height="604.986" filterUnits="userSpaceOnUse" color-interpolation-filters="sRGB">
<feFlood flood-opacity="0" result="BackgroundImageFix"/>
<feColorMatrix in="SourceAlpha" type="matrix" values="0 0 0 0 0 0 0 0 0 0 0 0 0 0 0 0 0 0 127 0" result="hardAlpha"/>
<feOffset dy="62.8245"/>
<feGaussianBlur stdDeviation="26.1769"/>
<feColorMatrix type="matrix" values="0 0 0 0 0.541176 0 0 0 0 0.192157 0 0 0 0 0.784314 0 0 0 0.2 0"/>
<feBlend mode="normal" in2="BackgroundImageFix" result="effect1_dropShadow_274_1096"/>
<feColorMatrix in="SourceAlpha" type="matrix" values="0 0 0 0 0 0 0 0 0 0 0 0 0 0 0 0 0 0 127 0" result="hardAlpha"/>
<feOffset dy="87.2562"/>
<feGaussianBlur stdDeviation="52.3537"/>
<feColorMatrix type="matrix" values="0 0 0 0 0.541176 0 0 0 0 0.192157 0 0 0 0 0.784314 0 0 0 0.25 0"/>
<feBlend mode="normal" in2="effect1_dropShadow_274_1096" result="effect2_dropShadow_274_1096"/>
<feColorMatrix in="SourceAlpha" type="matrix" values="0 0 0 0 0 0 0 0 0 0 0 0 0 0 0 0 0 0 127 0" result="hardAlpha"/>
<feOffset dy="104.707"/>
<feGaussianBlur stdDeviation="87.2562"/>
<feColorMatrix type="matrix" values="0 0 0 0 0.746667 0 0 0 0 0.418438 0 0 0 0 0.975 0 0 0 0.2 0"/>
<feBlend mode="normal" in2="effect2_dropShadow_274_1096" result="effect3_dropShadow_274_1096"/>
<feBlend mode="normal" in="SourceGraphic" in2="effect3_dropShadow_274_1096" result="shape"/>
</filter>
<linearGradient id="paint0_linear_274_1096" x1="789.5" y1="138.441" x2="779.768" y2="470.95" gradientUnits="userSpaceOnUse">
<stop stop-color="#04FDEE"/>
<stop offset="1" stop-color="#8A31C8"/>
</linearGradient>
<linearGradient id="paint1_linear_274_1096" x1="789.5" y1="137.441" x2="779.768" y2="469.95" gradientUnits="userSpaceOnUse">
<stop stop-color="#04FDEE"/>
<stop offset="1" stop-color="#8A31C8"/>
</linearGradient>
<linearGradient id="paint2_linear_274_1096" x1="789.5" y1="135.441" x2="779.768" y2="467.95" gradientUnits="userSpaceOnUse">
<stop stop-color="#04FDEE"/>
<stop offset="1" stop-color="#8A31C8"/>
</linearGradient>
<linearGradient id="paint3_linear_274_1096" x1="789.5" y1="133.441" x2="779.768" y2="465.95" gradientUnits="userSpaceOnUse">
<stop stop-color="#04FDEE"/>
<stop offset="1" stop-color="#8A31C8"/>
</linearGradient>
<linearGradient id="paint4_linear_274_1096" x1="789.5" y1="131.445" x2="779.768" y2="463.954" gradientUnits="userSpaceOnUse">
<stop stop-color="#04FDEE"/>
<stop offset="1" stop-color="#8A31C8"/>
</linearGradient>
<linearGradient id="paint5_linear_274_1096" x1="789.5" y1="129.445" x2="779.768" y2="461.954" gradientUnits="userSpaceOnUse">
<stop stop-color="#04FDEE"/>
<stop offset="1" stop-color="#8A31C8"/>
</linearGradient>
<linearGradient id="paint6_linear_274_1096" x1="789.5" y1="127.445" x2="779.768" y2="459.954" gradientUnits="userSpaceOnUse">
<stop stop-color="#04FDEE"/>
<stop offset="1" stop-color="#8A31C8"/>
</linearGradient>
<linearGradient id="paint7_linear_274_1096" x1="789.5" y1="125.449" x2="779.768" y2="457.958" gradientUnits="userSpaceOnUse">
<stop stop-color="#04FDEE"/>
<stop offset="1" stop-color="#8A31C8"/>
</linearGradient>
<linearGradient id="paint8_linear_274_1096" x1="789.5" y1="123.449" x2="779.768" y2="455.958" gradientUnits="userSpaceOnUse">
<stop stop-color="#04FDEE"/>
<stop offset="1" stop-color="#8A31C8"/>
</linearGradient>
<linearGradient id="paint9_linear_274_1096" x1="789.5" y1="121.449" x2="779.768" y2="453.958" gradientUnits="userSpaceOnUse">
<stop stop-color="#04FDEE"/>
<stop offset="1" stop-color="#8A31C8"/>
</linearGradient>
<linearGradient id="paint10_linear_274_1096" x1="789.5" y1="119.449" x2="779.768" y2="451.958" gradientUnits="userSpaceOnUse">
<stop stop-color="#04FDEE"/>
<stop offset="1" stop-color="#8A31C8"/>
</linearGradient>
<linearGradient id="paint11_linear_274_1096" x1="789.5" y1="117.453" x2="779.768" y2="449.962" gradientUnits="userSpaceOnUse">
<stop stop-color="#04FDEE"/>
<stop offset="1" stop-color="#8A31C8"/>
</linearGradient>
<linearGradient id="paint12_linear_274_1096" x1="789.5" y1="115.453" x2="779.768" y2="447.962" gradientUnits="userSpaceOnUse">
<stop stop-color="#04FDEE"/>
<stop offset="1" stop-color="#8A31C8"/>
</linearGradient>
<linearGradient id="paint13_linear_274_1096" x1="789.5" y1="113.453" x2="779.768" y2="445.962" gradientUnits="userSpaceOnUse">
<stop stop-color="#04FDEE"/>
<stop offset="1" stop-color="#8A31C8"/>
</linearGradient>
<linearGradient id="paint14_linear_274_1096" x1="789.5" y1="111.457" x2="779.768" y2="443.966" gradientUnits="userSpaceOnUse">
<stop stop-color="#04FDEE"/>
<stop offset="1" stop-color="#8A31C8"/>
</linearGradient>
<linearGradient id="paint15_linear_274_1096" x1="789.5" y1="109.457" x2="779.768" y2="441.966" gradientUnits="userSpaceOnUse">
<stop stop-color="#04FDEE"/>
<stop offset="1" stop-color="#8A31C8"/>
</linearGradient>
<linearGradient id="paint16_linear_274_1096" x1="789.5" y1="107.457" x2="779.768" y2="439.966" gradientUnits="userSpaceOnUse">
<stop stop-color="#04FDEE"/>
<stop offset="1" stop-color="#8A31C8"/>
</linearGradient>
<linearGradient id="paint17_linear_274_1096" x1="789.5" y1="105.461" x2="779.768" y2="437.969" gradientUnits="userSpaceOnUse">
<stop stop-color="#04FDEE"/>
<stop offset="1" stop-color="#8A31C8"/>
</linearGradient>
<linearGradient id="paint18_linear_274_1096" x1="789.5" y1="103.461" x2="779.768" y2="435.969" gradientUnits="userSpaceOnUse">
<stop stop-color="#04FDEE"/>
<stop offset="1" stop-color="#8A31C8"/>
</linearGradient>
<linearGradient id="paint19_linear_274_1096" x1="789.5" y1="101.461" x2="779.768" y2="433.969" gradientUnits="userSpaceOnUse">
<stop stop-color="#04FDEE"/>
<stop offset="1" stop-color="#8A31C8"/>
</linearGradient>
<linearGradient id="paint20_linear_274_1096" x1="789.5" y1="99.4609" x2="779.768" y2="431.969" gradientUnits="userSpaceOnUse">
<stop stop-color="#04FDEE"/>
<stop offset="1" stop-color="#8A31C8"/>
</linearGradient>
<linearGradient id="paint21_linear_274_1096" x1="789.5" y1="97.4648" x2="779.768" y2="429.973" gradientUnits="userSpaceOnUse">
<stop stop-color="#04FDEE"/>
<stop offset="1" stop-color="#8A31C8"/>
</linearGradient>
<linearGradient id="paint22_linear_274_1096" x1="789.5" y1="95.4648" x2="779.768" y2="427.973" gradientUnits="userSpaceOnUse">
<stop stop-color="#04FDEE"/>
<stop offset="1" stop-color="#8A31C8"/>
</linearGradient>
<linearGradient id="paint23_linear_274_1096" x1="789.5" y1="93.4648" x2="779.768" y2="425.973" gradientUnits="userSpaceOnUse">
<stop stop-color="#04FDEE"/>
<stop offset="1" stop-color="#8A31C8"/>
</linearGradient>
<linearGradient id="paint24_linear_274_1096" x1="789.5" y1="91.4687" x2="779.768" y2="423.977" gradientUnits="userSpaceOnUse">
<stop stop-color="#04FDEE"/>
<stop offset="1" stop-color="#8A31C8"/>
</linearGradient>
<linearGradient id="paint25_linear_274_1096" x1="789.5" y1="89.4687" x2="779.768" y2="421.977" gradientUnits="userSpaceOnUse">
<stop stop-color="#04FDEE"/>
<stop offset="1" stop-color="#8A31C8"/>
</linearGradient>
<linearGradient id="paint26_linear_274_1096" x1="789.5" y1="87.4687" x2="779.768" y2="419.977" gradientUnits="userSpaceOnUse">
<stop stop-color="#04FDEE"/>
<stop offset="1" stop-color="#8A31C8"/>
</linearGradient>
<linearGradient id="paint27_linear_274_1096" x1="789.5" y1="85.4727" x2="779.768" y2="417.981" gradientUnits="userSpaceOnUse">
<stop stop-color="#04FDEE"/>
<stop offset="1" stop-color="#8A31C8"/>
</linearGradient>
<linearGradient id="paint28_linear_274_1096" x1="789.5" y1="83.4727" x2="779.768" y2="415.981" gradientUnits="userSpaceOnUse">
<stop stop-color="#04FDEE"/>
<stop offset="1" stop-color="#8A31C8"/>
</linearGradient>
<linearGradient id="paint29_linear_274_1096" x1="789.5" y1="81.4727" x2="779.768" y2="413.981" gradientUnits="userSpaceOnUse">
<stop stop-color="#04FDEE"/>
<stop offset="1" stop-color="#8A31C8"/>
</linearGradient>
<linearGradient id="paint30_linear_274_1096" x1="789.5" y1="79.4727" x2="779.768" y2="411.981" gradientUnits="userSpaceOnUse">
<stop stop-color="#04FDEE"/>
<stop offset="1" stop-color="#8A31C8"/>
</linearGradient>
<linearGradient id="paint31_linear_274_1096" x1="789.5" y1="77.4766" x2="779.768" y2="409.985" gradientUnits="userSpaceOnUse">
<stop stop-color="#04FDEE"/>
<stop offset="1" stop-color="#8A31C8"/>
</linearGradient>
<linearGradient id="paint32_linear_274_1096" x1="789.5" y1="75.4766" x2="779.768" y2="407.985" gradientUnits="userSpaceOnUse">
<stop stop-color="#04FDEE"/>
<stop offset="1" stop-color="#8A31C8"/>
</linearGradient>
<linearGradient id="paint33_linear_274_1096" x1="789.5" y1="73.4766" x2="779.768" y2="405.985" gradientUnits="userSpaceOnUse">
<stop stop-color="#04FDEE"/>
<stop offset="1" stop-color="#8A31C8"/>
</linearGradient>
<linearGradient id="paint34_linear_274_1096" x1="789.5" y1="71.4805" x2="779.768" y2="403.989" gradientUnits="userSpaceOnUse">
<stop stop-color="#04FDEE"/>
<stop offset="1" stop-color="#8A31C8"/>
</linearGradient>
<linearGradient id="paint35_linear_274_1096" x1="789.5" y1="69.4805" x2="779.768" y2="401.989" gradientUnits="userSpaceOnUse">
<stop stop-color="#04FDEE"/>
<stop offset="1" stop-color="#8A31C8"/>
</linearGradient>
<linearGradient id="paint36_linear_274_1096" x1="789.5" y1="67.4805" x2="779.768" y2="399.989" gradientUnits="userSpaceOnUse">
<stop stop-color="#04FDEE"/>
<stop offset="1" stop-color="#8A31C8"/>
</linearGradient>
<linearGradient id="paint37_linear_274_1096" x1="789.5" y1="65.4844" x2="779.768" y2="397.993" gradientUnits="userSpaceOnUse">
<stop stop-color="#04FDEE"/>
<stop offset="1" stop-color="#8A31C8"/>
</linearGradient>
<linearGradient id="paint38_linear_274_1096" x1="789.5" y1="63.4844" x2="779.768" y2="395.993" gradientUnits="userSpaceOnUse">
<stop stop-color="#04FDEE"/>
<stop offset="1" stop-color="#8A31C8"/>
</linearGradient>
<linearGradient id="paint39_linear_274_1096" x1="789.5" y1="61.4844" x2="779.768" y2="393.993" gradientUnits="userSpaceOnUse">
<stop stop-color="#04FDEE"/>
<stop offset="1" stop-color="#8A31C8"/>
</linearGradient>
<linearGradient id="paint40_linear_274_1096" x1="789.5" y1="59.4844" x2="779.768" y2="391.993" gradientUnits="userSpaceOnUse">
<stop stop-color="#04FDEE"/>
<stop offset="1" stop-color="#8A31C8"/>
</linearGradient>
<linearGradient id="paint41_linear_274_1096" x1="789.5" y1="57.4883" x2="779.768" y2="389.997" gradientUnits="userSpaceOnUse">
<stop stop-color="#04FDEE"/>
<stop offset="1" stop-color="#8A31C8"/>
</linearGradient>
<linearGradient id="paint42_linear_274_1096" x1="789.5" y1="55.4883" x2="779.768" y2="387.997" gradientUnits="userSpaceOnUse">
<stop stop-color="#04FDEE"/>
<stop offset="1" stop-color="#8A31C8"/>
</linearGradient>
<linearGradient id="paint43_linear_274_1096" x1="789.5" y1="53.4883" x2="779.768" y2="385.997" gradientUnits="userSpaceOnUse">
<stop stop-color="#04FDEE"/>
<stop offset="1" stop-color="#8A31C8"/>
</linearGradient>
<linearGradient id="paint44_linear_274_1096" x1="789.5" y1="51.4922" x2="779.768" y2="384.001" gradientUnits="userSpaceOnUse">
<stop stop-color="#04FDEE"/>
<stop offset="1" stop-color="#8A31C8"/>
</linearGradient>
<linearGradient id="paint45_linear_274_1096" x1="789.5" y1="49.4922" x2="779.768" y2="382.001" gradientUnits="userSpaceOnUse">
<stop stop-color="#04FDEE"/>
<stop offset="1" stop-color="#8A31C8"/>
</linearGradient>
<linearGradient id="paint46_linear_274_1096" x1="789.5" y1="47.4922" x2="779.768" y2="380.001" gradientUnits="userSpaceOnUse">
<stop stop-color="#04FDEE"/>
<stop offset="1" stop-color="#8A31C8"/>
</linearGradient>
<linearGradient id="paint47_linear_274_1096" x1="789.5" y1="45.4922" x2="779.768" y2="378.001" gradientUnits="userSpaceOnUse">
<stop stop-color="#04FDEE"/>
<stop offset="1" stop-color="#8A31C8"/>
</linearGradient>
<linearGradient id="paint48_linear_274_1096" x1="789.5" y1="43.4961" x2="779.768" y2="376.005" gradientUnits="userSpaceOnUse">
<stop stop-color="#04FDEE"/>
<stop offset="1" stop-color="#8A31C8"/>
</linearGradient>
<linearGradient id="paint49_linear_274_1096" x1="789.5" y1="41.4961" x2="779.768" y2="374.005" gradientUnits="userSpaceOnUse">
<stop stop-color="#04FDEE"/>
<stop offset="1" stop-color="#8A31C8"/>
</linearGradient>
<linearGradient id="paint50_linear_274_1096" x1="789.5" y1="39.4961" x2="779.768" y2="372.005" gradientUnits="userSpaceOnUse">
<stop stop-color="#04FDEE"/>
<stop offset="1" stop-color="#8A31C8"/>
</linearGradient>
<linearGradient id="paint51_linear_274_1096" x1="789.5" y1="37.5" x2="779.768" y2="370.009" gradientUnits="userSpaceOnUse">
<stop stop-color="#04FDEE"/>
<stop offset="1" stop-color="#8A31C8"/>
</linearGradient>
<linearGradient id="paint52_linear_274_1096" x1="789.5" y1="35.5" x2="779.768" y2="368.009" gradientUnits="userSpaceOnUse">
<stop stop-color="#04FDEE"/>
<stop offset="1" stop-color="#8A31C8"/>
</linearGradient>
</defs>
</svg>
