<svg width="122" height="90" viewBox="0 0 122 90" fill="none" xmlns="http://www.w3.org/2000/svg">
<rect opacity="0.05" x="14" y="14" width="96" height="64" rx="8" fill="#E0E0E0"/>
<g opacity="0.5" filter="url(#filter0_ddddii_377_14192)">
<rect x="14" y="14" width="96" height="64" rx="8" fill="url(#paint0_linear_377_14192)"/>
<rect x="16.5" y="16.5" width="91" height="59" rx="5.5" stroke="url(#paint1_linear_377_14192)" stroke-width="5"/>
</g>
<g clip-path="url(#clip0_377_14192)">
<path d="M81.4017 50.8365C78.7295 61.5565 67.8684 68.0731 57.1637 65.4008C46.4434 62.7286 39.9269 51.8679 42.5992 41.1634C45.2714 30.4434 56.1167 23.9269 66.837 26.5992C77.5417 29.2558 84.074 40.1164 81.4017 50.8365Z" fill="#E0E0E0"/>
<path d="M71.523 43.5078C71.9136 40.8516 69.8979 39.4141 67.1167 38.4609L68.023 34.8516L65.8355 34.3047L64.9605 37.8203C64.3823 37.6797 63.7886 37.5391 63.1948 37.4141L64.0698 33.8828L61.8823 33.3359L60.9917 36.9297C60.5073 36.8203 60.0386 36.7109 59.5854 36.6016V36.5859L56.5542 35.8359L55.9761 38.1797C55.9761 38.1797 57.6011 38.5547 57.5698 38.5703C58.4604 38.7891 58.6167 39.3828 58.5854 39.8516L57.5542 43.9609C57.6167 43.9766 57.6948 43.9922 57.7886 44.0391C57.7104 44.0234 57.6323 44.0078 57.5542 43.9766L56.1167 49.7266C56.0073 49.9922 55.7261 50.3984 55.1167 50.2422C55.1323 50.2734 53.5229 49.8516 53.5229 49.8516L52.4292 52.3672L55.2886 53.0859C55.8198 53.2266 56.3354 53.3516 56.8511 53.4922L55.9448 57.1328L58.1323 57.6797L59.0386 54.0703C59.6323 54.2266 60.2261 54.3828 60.7886 54.5234L59.8979 58.1172L62.0854 58.6641L62.9917 55.0234C66.7417 55.7266 69.5542 55.4453 70.7261 52.0547C71.6792 49.3359 70.6792 47.7578 68.7105 46.7266C70.1636 46.3984 71.2417 45.4453 71.523 43.5078ZM66.5073 50.5391C65.8355 53.2578 61.2417 51.7891 59.7573 51.4141L60.9605 46.5859C62.4448 46.9609 67.2261 47.6953 66.5073 50.5391ZM67.1948 43.4609C66.5698 45.9453 62.7573 44.6797 61.5229 44.3672L62.6167 39.9922C63.8511 40.3047 67.8354 40.8828 67.1948 43.4609Z" fill="#0D0D2B"/>
</g>
<defs>
<filter id="filter0_ddddii_377_14192" x="0" y="0" width="122" height="90" filterUnits="userSpaceOnUse" color-interpolation-filters="sRGB">
<feFlood flood-opacity="0" result="BackgroundImageFix"/>
<feColorMatrix in="SourceAlpha" type="matrix" values="0 0 0 0 0 0 0 0 0 0 0 0 0 0 0 0 0 0 127 0" result="hardAlpha"/>
<feOffset dx="-4" dy="-4"/>
<feGaussianBlur stdDeviation="5"/>
<feColorMatrix type="matrix" values="0 0 0 0 0.392157 0 0 0 0 0 0 0 0 0 0.384314 0 0 0 0.9 0"/>
<feBlend mode="normal" in2="BackgroundImageFix" result="effect1_dropShadow_377_14192"/>
<feColorMatrix in="SourceAlpha" type="matrix" values="0 0 0 0 0 0 0 0 0 0 0 0 0 0 0 0 0 0 127 0" result="hardAlpha"/>
<feOffset dx="4" dy="4"/>
<feGaussianBlur stdDeviation="4"/>
<feColorMatrix type="matrix" values="0 0 0 0 1 0 0 0 0 0 0 0 0 0 1 0 0 0 0.9 0"/>
<feBlend mode="normal" in2="effect1_dropShadow_377_14192" result="effect2_dropShadow_377_14192"/>
<feColorMatrix in="SourceAlpha" type="matrix" values="0 0 0 0 0 0 0 0 0 0 0 0 0 0 0 0 0 0 127 0" result="hardAlpha"/>
<feOffset dx="-4" dy="4"/>
<feGaussianBlur stdDeviation="4"/>
<feColorMatrix type="matrix" values="0 0 0 0 0.392157 0 0 0 0 0 0 0 0 0 0.384314 0 0 0 0.2 0"/>
<feBlend mode="normal" in2="effect2_dropShadow_377_14192" result="effect3_dropShadow_377_14192"/>
<feColorMatrix in="SourceAlpha" type="matrix" values="0 0 0 0 0 0 0 0 0 0 0 0 0 0 0 0 0 0 127 0" result="hardAlpha"/>
<feOffset dx="4" dy="-4"/>
<feGaussianBlur stdDeviation="4"/>
<feColorMatrix type="matrix" values="0 0 0 0 0.392157 0 0 0 0 0 0 0 0 0 0.384314 0 0 0 0.2 0"/>
<feBlend mode="normal" in2="effect3_dropShadow_377_14192" result="effect4_dropShadow_377_14192"/>
<feBlend mode="normal" in="SourceGraphic" in2="effect4_dropShadow_377_14192" result="shape"/>
<feColorMatrix in="SourceAlpha" type="matrix" values="0 0 0 0 0 0 0 0 0 0 0 0 0 0 0 0 0 0 127 0" result="hardAlpha"/>
<feOffset dx="1" dy="1"/>
<feGaussianBlur stdDeviation="1"/>
<feComposite in2="hardAlpha" operator="arithmetic" k2="-1" k3="1"/>
<feColorMatrix type="matrix" values="0 0 0 0 0.392157 0 0 0 0 0 0 0 0 0 0.384314 0 0 0 0.5 0"/>
<feBlend mode="normal" in2="shape" result="effect5_innerShadow_377_14192"/>
<feColorMatrix in="SourceAlpha" type="matrix" values="0 0 0 0 0 0 0 0 0 0 0 0 0 0 0 0 0 0 127 0" result="hardAlpha"/>
<feOffset dx="-1" dy="-1"/>
<feGaussianBlur stdDeviation="1"/>
<feComposite in2="hardAlpha" operator="arithmetic" k2="-1" k3="1"/>
<feColorMatrix type="matrix" values="0 0 0 0 1 0 0 0 0 0 0 0 0 0 1 0 0 0 0.3 0"/>
<feBlend mode="normal" in2="effect5_innerShadow_377_14192" result="effect6_innerShadow_377_14192"/>
</filter>
<linearGradient id="paint0_linear_377_14192" x1="14" y1="14" x2="73.0769" y2="102.615" gradientUnits="userSpaceOnUse">
<stop stop-color="#FF00FF"/>
<stop offset="0.544792" stop-color="#1EF95B" stop-opacity="0.6475"/>
<stop offset="1" stop-color="#0044F2" stop-opacity="0.2"/>
</linearGradient>
<linearGradient id="paint1_linear_377_14192" x1="19" y1="22" x2="110" y2="78" gradientUnits="userSpaceOnUse">
<stop stop-color="#750783" stop-opacity="0.4"/>
<stop offset="1" stop-color="#750783" stop-opacity="0"/>
</linearGradient>
<clipPath id="clip0_377_14192">
<rect width="40" height="40" fill="white" transform="translate(42 26)"/>
</clipPath>
</defs>
</svg>
