<svg width="24" height="24" viewBox="0 0 24 24" fill="none" xmlns="http://www.w3.org/2000/svg">
<path d="M15.2 8.80078C16.4731 8.80078 17.694 9.30649 18.5941 10.2067C19.4943 11.1068 20 12.3277 20 13.6008V19.2008H16.8V13.6008C16.8 13.1764 16.6315 12.7695 16.3314 12.4694C16.0313 12.1694 15.6244 12.0008 15.2 12.0008C14.7757 12.0008 14.3687 12.1694 14.0687 12.4694C13.7686 12.7695 13.6 13.1764 13.6 13.6008V19.2008H10.4V13.6008C10.4 12.3277 10.9057 11.1068 11.8059 10.2067C12.7061 9.30649 13.927 8.80078 15.2 8.80078Z" fill="white"/>
<path d="M7.2 9.60156H4V19.2016H7.2V9.60156Z" fill="white"/>
<path d="M5.6 7.2C6.48366 7.2 7.2 6.48366 7.2 5.6C7.2 4.71634 6.48366 4 5.6 4C4.71634 4 4 4.71634 4 5.6C4 6.48366 4.71634 7.2 5.6 7.2Z" fill="white"/>
</svg>
