<svg width="229" height="26" viewBox="0 0 229 26" fill="none" xmlns="http://www.w3.org/2000/svg">
<path d="M13.7614 18.984L13.7134 19.008V14.952C14.1774 15.08 14.5774 15.304 14.9134 15.624C15.2494 15.928 15.4174 16.336 15.4174 16.848C15.4174 17.36 15.2494 17.808 14.9134 18.192C14.5934 18.576 14.2014 18.84 13.7374 18.984H13.7614ZM11.6734 7.632V7.656V10.944C11.2254 10.832 10.8574 10.656 10.5694 10.416C10.2814 10.176 10.1374 9.8 10.1374 9.288C10.1374 8.824 10.2814 8.456 10.5694 8.184C10.8734 7.896 11.2494 7.712 11.6974 7.632H11.6734ZM0.585375 13.464H9.65738C9.96138 13.608 10.2814 13.744 10.6174 13.872C10.9534 14 11.2974 14.128 11.6494 14.256V19.008C11.0894 18.896 10.5774 18.672 10.1134 18.336C9.66538 18.016 9.32138 17.6 9.08138 17.088L6.63338 18.936C7.22538 19.736 7.96138 20.376 8.84138 20.856C9.72138 21.352 10.6574 21.616 11.6494 21.648V24.432H12.3934V25.248H12.8254V24.432H13.7374V21.648C14.4094 21.632 15.0414 21.48 15.6334 21.192C16.2254 20.904 16.7374 20.52 17.1694 20.04C17.6014 19.576 17.9454 19.04 18.2014 18.432C18.4574 17.84 18.5854 17.208 18.5854 16.536C18.5854 15.832 18.4814 15.24 18.2734 14.76C18.0654 14.264 17.7854 13.832 17.4334 13.464H24.6334V13.008H16.9054C16.4734 12.688 15.9854 12.416 15.4414 12.192C14.9134 11.968 14.3454 11.768 13.7374 11.592V7.68C14.2654 7.76 14.7294 7.968 15.1294 8.304C15.5294 8.64 15.8654 9.024 16.1374 9.456L18.2974 7.752C18.0574 7.368 17.7694 7.016 17.4334 6.696C17.0974 6.376 16.7214 6.096 16.3054 5.856C15.9054 5.616 15.4814 5.432 15.0334 5.304C14.6014 5.16 14.1614 5.072 13.7134 5.04V2.424H12.8254V1.224H12.3934V2.424H11.6494V5.04C11.0254 5.056 10.4254 5.176 9.84938 5.4C9.28938 5.624 8.79338 5.936 8.36138 6.336C7.92938 6.72 7.58538 7.184 7.32938 7.728C7.07337 8.272 6.94537 8.864 6.94537 9.504C6.94537 10.4 7.11338 11.12 7.44938 11.664C7.80138 12.192 8.25738 12.64 8.81738 13.008H0.585375V13.464ZM32.4334 13.008V12.984C32.4334 12.312 32.5054 11.648 32.6494 10.992C32.7934 10.336 33.0254 9.744 33.3454 9.216C33.6814 8.672 34.0974 8.216 34.5934 7.848C35.0894 7.48 35.6894 7.24 36.3934 7.128V13.008H32.4334ZM36.3934 18.816C35.7374 18.72 35.1694 18.504 34.6894 18.168C34.2094 17.832 33.8094 17.424 33.4894 16.944C33.1694 16.448 32.9214 15.904 32.7454 15.312C32.5694 14.704 32.4654 14.088 32.4334 13.464H36.3934V18.816ZM48.6334 13.464V13.008H36.8254V7.08H37.1614C37.6254 7.08 38.0654 7.16 38.4814 7.32C38.9134 7.464 39.2894 7.672 39.6094 7.944C39.9454 8.216 40.2254 8.544 40.4494 8.928C40.6734 9.312 40.8174 9.736 40.8814 10.2L43.9294 9.432C43.5454 7.72 42.7534 6.408 41.5534 5.496C40.3694 4.584 38.9134 4.128 37.1854 4.128H36.8254V1.224H36.3934V4.152C35.2574 4.248 34.2414 4.552 33.3454 5.064C32.4494 5.576 31.6894 6.232 31.0654 7.032C30.4414 7.816 29.9614 8.72 29.6254 9.744C29.3054 10.768 29.1454 11.84 29.1454 12.96L29.1214 13.008H24.5854V13.464H29.1454C29.1934 14.568 29.3774 15.608 29.6974 16.584C30.0334 17.544 30.5054 18.392 31.1134 19.128C31.7374 19.864 32.4894 20.456 33.3694 20.904C34.2494 21.368 35.2574 21.648 36.3934 21.744V25.248H36.8254V21.768H37.1614C38.9214 21.768 40.3614 21.336 41.4814 20.472C42.6014 19.608 43.4734 18.376 44.0974 16.776L41.2414 15.456C40.9374 16.432 40.4494 17.248 39.7774 17.904C39.1054 18.544 38.2334 18.864 37.1614 18.864H36.8254V13.464H48.6334ZM72.6334 13.464V13.008H65.6974C66.3694 12.144 66.7054 11.024 66.7054 9.648C66.7054 8.816 66.5614 8.088 66.2734 7.464C65.9854 6.824 65.5854 6.288 65.0734 5.856C64.5614 5.424 63.9614 5.104 63.2734 4.896C62.5854 4.672 61.8494 4.56 61.0654 4.56H60.8254V1.224H60.3934V4.56H54.0574V13.008H48.5854V13.464H54.0574V21.36H57.2254V15.168H60.2254L60.3934 15.432V25.248H60.8254V16.152L64.4014 21.888L67.3534 20.616L63.3934 14.592C64.1774 14.304 64.8094 13.928 65.2894 13.464H72.6334ZM60.3934 7.344V12.408L57.2254 12.384V7.344H60.2014H60.3934ZM63.4174 9.864C63.4174 10.648 63.1694 11.264 62.6734 11.712C62.1774 12.144 61.5614 12.376 60.8254 12.408V7.368C61.1774 7.416 61.5054 7.496 61.8094 7.608C62.1294 7.704 62.4094 7.856 62.6494 8.064C62.8894 8.256 63.0734 8.504 63.2014 8.808C63.3454 9.096 63.4174 9.448 63.4174 9.864ZM90.5854 16.704C90.5854 16.032 90.4334 15.424 90.1294 14.88C89.8254 14.32 89.4174 13.848 88.9054 13.464H96.6334V13.008H88.1614L88.1134 12.984C88.7054 12.68 89.1854 12.248 89.5534 11.688C89.9214 11.112 90.1054 10.488 90.1054 9.816V9.792C90.1054 8.992 89.9694 8.296 89.6974 7.704C89.4254 7.112 89.0494 6.624 88.5694 6.24C88.0894 5.856 87.5294 5.568 86.8894 5.376C86.2494 5.168 85.5614 5.056 84.8254 5.04V1.224H84.3934V5.04C83.6574 5.056 82.9614 5.16 82.3054 5.352C81.6654 5.544 81.1054 5.84 80.6254 6.24C80.1454 6.624 79.7694 7.112 79.4974 7.704C79.2254 8.28 79.0894 8.976 79.0894 9.792C79.0894 10.464 79.2734 11.088 79.6414 11.664C80.0254 12.224 80.5054 12.656 81.0814 12.96L80.9854 13.008H72.5854V13.464H80.2894C79.7774 13.848 79.3694 14.32 79.0654 14.88C78.7774 15.424 78.6334 16.032 78.6334 16.704C78.6334 17.52 78.7934 18.232 79.1134 18.84C79.4334 19.448 79.8574 19.952 80.3854 20.352C80.9294 20.768 81.5454 21.08 82.2334 21.288C82.9374 21.512 83.6574 21.632 84.3934 21.648V25.248H84.8254V21.648C85.5614 21.632 86.2734 21.52 86.9614 21.312C87.6494 21.104 88.2574 20.792 88.7854 20.376C89.3294 19.976 89.7614 19.464 90.0814 18.84C90.4174 18.232 90.5854 17.52 90.5854 16.704ZM84.3934 7.704V11.952C83.7534 11.92 83.2334 11.744 82.8334 11.424C82.4494 11.088 82.2574 10.56 82.2574 9.84C82.2574 9.12 82.4494 8.592 82.8334 8.256C83.2174 7.92 83.7374 7.736 84.3934 7.704ZM86.9614 9.816C86.9614 10.536 86.7694 11.064 86.3854 11.4C86.0014 11.736 85.4814 11.92 84.8254 11.952V7.704C85.4654 7.736 85.9774 7.92 86.3614 8.256C86.7614 8.576 86.9614 9.096 86.9614 9.816ZM84.3934 14.448V19.032C83.6894 19 83.0974 18.8 82.6174 18.432C82.1534 18.08 81.9214 17.512 81.9214 16.728C81.9214 15.96 82.1534 15.4 82.6174 15.048C83.0974 14.68 83.6894 14.48 84.3934 14.448ZM87.2734 16.752C87.2734 17.52 87.0414 18.08 86.5774 18.432C86.1134 18.8 85.5294 19 84.8254 19.032V14.448C85.5294 14.48 86.1134 14.68 86.5774 15.048C87.0414 15.416 87.2734 15.984 87.2734 16.752ZM132.633 13.464V13.008H122.169V7.488H126.801V4.56H120.825V1.224H120.393V4.56H114.417V7.488H119.049V13.008H108.585V13.464H119.049V21.36H120.393V25.248H120.825V21.36H122.193V13.464H132.633ZM144.393 18.84C143.641 18.808 142.985 18.632 142.425 18.312C141.881 18.008 141.425 17.608 141.057 17.112C140.689 16.616 140.409 16.056 140.217 15.432C140.025 14.792 139.913 14.136 139.881 13.464H144.393V18.84ZM149.313 13.464C149.281 14.136 149.169 14.792 148.977 15.432C148.785 16.056 148.505 16.616 148.137 17.112C147.769 17.608 147.305 18.008 146.745 18.312C146.201 18.632 145.561 18.808 144.825 18.84V13.464H149.313ZM144.825 7.08C145.609 7.112 146.289 7.304 146.865 7.656C147.441 8.008 147.905 8.456 148.257 9C148.625 9.544 148.897 10.16 149.073 10.848C149.249 11.52 149.337 12.216 149.337 12.936V13.008H144.825V7.08ZM139.857 13.008V12.984V12.96C139.857 12.24 139.945 11.536 140.121 10.848C140.297 10.16 140.569 9.544 140.937 9C141.305 8.456 141.769 8.008 142.329 7.656C142.905 7.304 143.593 7.112 144.393 7.08V13.008H139.857ZM132.585 13.464H136.569C136.617 14.584 136.825 15.648 137.193 16.656C137.577 17.648 138.105 18.52 138.777 19.272C139.449 20.024 140.257 20.624 141.201 21.072C142.145 21.536 143.209 21.776 144.393 21.792V25.248H144.825V21.792C145.993 21.76 147.049 21.512 147.993 21.048C148.937 20.6 149.745 19.992 150.417 19.224C151.089 18.472 151.617 17.6 152.001 16.608C152.385 15.616 152.601 14.568 152.649 13.464H156.633V13.008H152.649V12.96C152.649 11.792 152.465 10.688 152.097 9.648C151.745 8.592 151.233 7.664 150.561 6.864C149.889 6.064 149.065 5.424 148.089 4.944C147.129 4.448 146.041 4.184 144.825 4.152V1.224H144.393V4.152C143.177 4.184 142.081 4.44 141.105 4.92C140.145 5.4 139.329 6.04 138.657 6.84C137.985 7.64 137.465 8.568 137.097 9.624C136.745 10.68 136.569 11.792 136.569 12.96V13.008H132.585V13.464ZM180.633 13.464V13.008H171.273L169.689 10.92L175.209 4.56L172.065 3.864L168.825 7.536V1.224H168.393V8.064L164.793 12.12V4.56H161.625V13.008H156.585V13.464H161.649V21.36H164.817V16.536L167.505 13.512L168.393 14.64V25.248H168.825V15.216L173.769 21.432L176.745 20.256L171.609 13.464H180.633ZM192.825 6.648C194.121 6.744 195.137 7.208 195.873 8.04C196.609 8.856 197.073 9.912 197.265 11.208H192.825V6.648ZM192.393 11.208H187.905C187.969 10.6 188.113 10.024 188.337 9.48C188.561 8.92 188.857 8.432 189.225 8.016C189.609 7.584 190.065 7.248 190.593 7.008C191.121 6.752 191.713 6.624 192.369 6.624L192.393 11.208ZM192.393 19.392C191.641 19.344 190.985 19.16 190.425 18.84C189.881 18.52 189.417 18.112 189.033 17.616C188.665 17.104 188.385 16.52 188.193 15.864C188.017 15.208 187.929 14.52 187.929 13.8L192.393 13.776V19.392ZM204.633 13.464V13.008H200.673V12.264C200.673 11.064 200.489 9.968 200.121 8.976C199.769 7.968 199.249 7.104 198.561 6.384C197.889 5.664 197.065 5.104 196.089 4.704C195.113 4.288 194.025 4.072 192.825 4.056V1.224H192.393V4.056C191.033 4.088 189.857 4.336 188.865 4.8C187.889 5.248 187.081 5.872 186.441 6.672C185.801 7.456 185.321 8.392 185.001 9.48C184.697 10.552 184.545 11.728 184.545 13.008H180.585V13.464H184.545C184.577 14.616 184.777 15.704 185.145 16.728C185.513 17.736 186.033 18.624 186.705 19.392C187.377 20.16 188.185 20.768 189.129 21.216C190.089 21.68 191.177 21.92 192.393 21.936V25.248H192.825V21.936C194.713 21.888 196.329 21.376 197.673 20.4C199.017 19.44 199.961 18.024 200.505 16.152L200.529 16.008L197.385 15.6C197.369 16.192 197.217 16.728 196.929 17.208C196.657 17.672 196.305 18.064 195.873 18.384C195.441 18.72 194.953 18.976 194.409 19.152C193.881 19.328 193.353 19.416 192.825 19.416V13.752L200.625 13.704L200.649 13.464H204.633ZM216.825 6.96H217.113C218.345 6.96 219.217 7.272 219.729 7.896C220.257 8.52 220.521 9.424 220.521 10.608V13.008H216.825V6.96ZM212.721 13.008V11.256C212.721 10.056 213.049 9.08 213.705 8.328C214.377 7.576 215.273 7.136 216.393 7.008V13.008H212.721ZM228.633 13.464V13.008H223.593V10.32C223.593 8.32 223.105 6.776 222.129 5.688C221.153 4.6 219.633 4.056 217.569 4.056C217.441 4.056 217.313 4.064 217.185 4.08C217.073 4.08 216.953 4.088 216.825 4.104V1.224H216.393V4.176C215.657 4.32 214.977 4.592 214.353 4.992C213.729 5.392 213.185 5.904 212.721 6.528V4.488H209.601V13.008H204.585V13.464H209.625V21.48H212.745V13.464H216.393V25.248H216.825V13.464H220.521V21.48H223.617V13.464H228.633Z" fill="white"/>
</svg>
