<svg width="122" height="90" viewBox="0 0 122 90" fill="none" xmlns="http://www.w3.org/2000/svg">
<g opacity="0.5" filter="url(#filter0_ddddii_377_14198)">
<rect x="14" y="14" width="96" height="64" rx="8" fill="url(#paint0_linear_377_14198)"/>
<rect x="16.5" y="16.5" width="91" height="59" rx="5.5" stroke="url(#paint1_linear_377_14198)" stroke-width="5"/>
</g>
<path d="M55.4937 34.2266H68.4593V57.9529H55.4937V34.2266Z" fill="#BDBDBD"/>
<path d="M56.3167 46.091C56.3167 41.2703 58.5393 36.9945 61.9556 34.2277C59.4449 32.2156 56.2756 31 52.8181 31C44.6268 31 38 37.7489 38 46.091C38 54.4328 44.6268 61.1819 52.8179 61.1819C56.2754 61.1819 59.4447 59.9663 61.9556 57.954C58.5393 55.2293 56.3167 50.9116 56.3167 46.091Z" fill="#828282"/>
<path d="M85.9526 46.091C85.9526 54.4328 79.3258 61.1819 71.1347 61.1819C67.6772 61.1819 64.5079 59.9663 61.9971 57.954C65.4546 55.1875 67.6361 50.9116 67.6361 46.091C67.6361 41.2703 65.4133 36.9945 61.9971 34.2277C64.5077 32.2156 67.6772 31 71.1347 31C79.3258 31 85.9528 37.7909 85.9528 46.091H85.9526Z" fill="#E0E0E0"/>
<defs>
<filter id="filter0_ddddii_377_14198" x="0" y="0" width="122" height="90" filterUnits="userSpaceOnUse" color-interpolation-filters="sRGB">
<feFlood flood-opacity="0" result="BackgroundImageFix"/>
<feColorMatrix in="SourceAlpha" type="matrix" values="0 0 0 0 0 0 0 0 0 0 0 0 0 0 0 0 0 0 127 0" result="hardAlpha"/>
<feOffset dx="-4" dy="-4"/>
<feGaussianBlur stdDeviation="5"/>
<feColorMatrix type="matrix" values="0 0 0 0 0.392157 0 0 0 0 0 0 0 0 0 0.384314 0 0 0 0.9 0"/>
<feBlend mode="normal" in2="BackgroundImageFix" result="effect1_dropShadow_377_14198"/>
<feColorMatrix in="SourceAlpha" type="matrix" values="0 0 0 0 0 0 0 0 0 0 0 0 0 0 0 0 0 0 127 0" result="hardAlpha"/>
<feOffset dx="4" dy="4"/>
<feGaussianBlur stdDeviation="4"/>
<feColorMatrix type="matrix" values="0 0 0 0 1 0 0 0 0 0 0 0 0 0 1 0 0 0 0.9 0"/>
<feBlend mode="normal" in2="effect1_dropShadow_377_14198" result="effect2_dropShadow_377_14198"/>
<feColorMatrix in="SourceAlpha" type="matrix" values="0 0 0 0 0 0 0 0 0 0 0 0 0 0 0 0 0 0 127 0" result="hardAlpha"/>
<feOffset dx="-4" dy="4"/>
<feGaussianBlur stdDeviation="4"/>
<feColorMatrix type="matrix" values="0 0 0 0 0.392157 0 0 0 0 0 0 0 0 0 0.384314 0 0 0 0.2 0"/>
<feBlend mode="normal" in2="effect2_dropShadow_377_14198" result="effect3_dropShadow_377_14198"/>
<feColorMatrix in="SourceAlpha" type="matrix" values="0 0 0 0 0 0 0 0 0 0 0 0 0 0 0 0 0 0 127 0" result="hardAlpha"/>
<feOffset dx="4" dy="-4"/>
<feGaussianBlur stdDeviation="4"/>
<feColorMatrix type="matrix" values="0 0 0 0 0.392157 0 0 0 0 0 0 0 0 0 0.384314 0 0 0 0.2 0"/>
<feBlend mode="normal" in2="effect3_dropShadow_377_14198" result="effect4_dropShadow_377_14198"/>
<feBlend mode="normal" in="SourceGraphic" in2="effect4_dropShadow_377_14198" result="shape"/>
<feColorMatrix in="SourceAlpha" type="matrix" values="0 0 0 0 0 0 0 0 0 0 0 0 0 0 0 0 0 0 127 0" result="hardAlpha"/>
<feOffset dx="1" dy="1"/>
<feGaussianBlur stdDeviation="1"/>
<feComposite in2="hardAlpha" operator="arithmetic" k2="-1" k3="1"/>
<feColorMatrix type="matrix" values="0 0 0 0 0.392157 0 0 0 0 0 0 0 0 0 0.384314 0 0 0 0.5 0"/>
<feBlend mode="normal" in2="shape" result="effect5_innerShadow_377_14198"/>
<feColorMatrix in="SourceAlpha" type="matrix" values="0 0 0 0 0 0 0 0 0 0 0 0 0 0 0 0 0 0 127 0" result="hardAlpha"/>
<feOffset dx="-1" dy="-1"/>
<feGaussianBlur stdDeviation="1"/>
<feComposite in2="hardAlpha" operator="arithmetic" k2="-1" k3="1"/>
<feColorMatrix type="matrix" values="0 0 0 0 1 0 0 0 0 0 0 0 0 0 1 0 0 0 0.3 0"/>
<feBlend mode="normal" in2="effect5_innerShadow_377_14198" result="effect6_innerShadow_377_14198"/>
</filter>
<linearGradient id="paint0_linear_377_14198" x1="14" y1="14" x2="73.0769" y2="102.615" gradientUnits="userSpaceOnUse">
<stop stop-color="#FF00FF"/>
<stop offset="0.544792" stop-color="#1EF95B" stop-opacity="0.6475"/>
<stop offset="1" stop-color="#0044F2" stop-opacity="0.2"/>
</linearGradient>
<linearGradient id="paint1_linear_377_14198" x1="19" y1="22" x2="110" y2="78" gradientUnits="userSpaceOnUse">
<stop stop-color="#750783" stop-opacity="0.4"/>
<stop offset="1" stop-color="#750783" stop-opacity="0"/>
</linearGradient>
</defs>
</svg>
